<mxfile host="app.diagrams.net" modified="2023-09-20T16:18:30.554Z" agent="Mozilla/5.0 (Macintosh; Intel Mac OS X 10.15; rv:109.0) Gecko/20100101 Firefox/117.0" version="21.7.5" etag="B6ChbHHWBi1L9woIFIKO" type="github">
  <diagram name="Page-1" id="JPXdRtkyP0Un6k2yz63l">
    <mxGraphModel>
      <root>
        <mxCell id="0" />
        <mxCell id="1" parent="0" />
      </root>
    </mxGraphModel>
  </diagram>
</mxfile>
